<?xml version="1.0" encoding="UTF-8"?>
<svg width="512" height="512" viewBox="0 0 512 512" xmlns="http://www.w3.org/2000/svg">
  <!-- Gradient definitions -->
  <defs>
    <linearGradient id="backgroundGradient" x1="0%" y1="0%" x2="100%" y2="100%">
      <stop offset="0%" stop-color="#667EEA"/>
      <stop offset="50%" stop-color="#764BA2"/>
      <stop offset="100%" stop-color="#8E44AD"/>
    </linearGradient>
    <linearGradient id="leafGradient" x1="0%" y1="0%" x2="100%" y2="100%">
      <stop offset="0%" stop-color="#FFFFFF"/>
      <stop offset="100%" stop-color="#F5F5F5"/>
    </linearGradient>
    <filter id="shadow" x="-20%" y="-20%" width="140%" height="140%">
      <feDropShadow dx="0" dy="6" stdDeviation="12" flood-color="#000000" flood-opacity="0.25"/>
    </filter>
  </defs>
  
  <!-- Background rounded square with gradient -->
  <rect x="32" y="32" width="448" height="448" rx="90" ry="90" 
        fill="url(#backgroundGradient)" filter="url(#shadow)"/>
  
  <!-- Inner highlight -->
  <rect x="40" y="40" width="432" height="432" rx="85" ry="85" 
        fill="none" stroke="rgba(255,255,255,0.15)" stroke-width="2"/>
  
  <!-- Main zen lotus/leaf design - centered -->
  <g transform="translate(256, 256)">
    <!-- Shadow for depth -->
    <g transform="translate(3, 3)" opacity="0.1">
      <path d="M0 -100 Q-50 -50, -75 0 Q-50 50, 0 100 Q50 50, 75 0 Q50 -50, 0 -100 Z" fill="#000"/>
      <path d="M0 -65 Q-32 -32, -48 0 Q-32 32, 0 65 Q32 32, 48 0 Q32 -32, 0 -65 Z" fill="#000"/>
      <circle cx="0" cy="0" r="18" fill="#000"/>
    </g>
    
    <!-- Main outer leaf -->
    <path d="M0 -100 Q-50 -50, -75 0 Q-50 50, 0 100 Q50 50, 75 0 Q50 -50, 0 -100 Z" 
          fill="url(#leafGradient)"/>
    
    <!-- Inner smaller leaf -->
    <path d="M0 -65 Q-32 -32, -48 0 Q-32 32, 0 65 Q32 32, 48 0 Q32 -32, 0 -65 Z" 
          fill="rgba(255,255,255,0.7)"/>
    
    <!-- Central zen circle -->
    <circle cx="0" cy="0" r="18" fill="rgba(142,68,173,0.9)"/>
    <circle cx="0" cy="0" r="12" fill="rgba(255,255,255,0.3)"/>
  </g>
  
  <!-- Decorative meditation rings -->
  <rect x="60" y="60" width="392" height="392" rx="70" ry="70" 
        fill="none" stroke="rgba(255,255,255,0.08)" stroke-width="1"/>
  <rect x="80" y="80" width="352" height="352" rx="60" ry="60" 
        fill="none" stroke="rgba(255,255,255,0.05)" stroke-width="1"/>
</svg>
