<?xml version="1.0" encoding="UTF-8"?>
<svg version="1.1" xmlns="http://www.w3.org/2000/svg" width="300" height="300">
<path d="M0 0 C0.66 0 1.32 0 2 0 C2.97983928 2.60391539 3.95889794 5.20811968 4.9375 7.8125 C5.21529297 8.55048828 5.49308594 9.28847656 5.77929688 10.04882812 C6.18051758 11.11713867 6.18051758 11.11713867 6.58984375 12.20703125 C6.83597412 12.8616333 7.08210449 13.51623535 7.33569336 14.19067383 C7.92037033 15.78311815 8.46355559 17.39066676 9 19 C9.99 19.33 10.98 19.66 12 20 C9.54921588 21.63385608 7.55834877 22.65357792 4.875 23.75 C-1.69428237 26.65685498 -7.23378781 30.58701923 -12.85546875 35.03125 C-27.97304927 46.95294833 -42.54176375 55.65176582 -62.375 55.375 C-63.40359131 55.36919922 -64.43218262 55.36339844 -65.49194336 55.35742188 C-74.3177591 55.21123859 -82.8751204 54.12837256 -91.56640625 52.65625 C-95.43846105 52.01769769 -99.08043502 51.87373214 -103 52 C-102.07703125 52.10957031 -101.1540625 52.21914062 -100.203125 52.33203125 C-92.34275442 53.2873925 -84.51343223 54.35612516 -76.6875 55.5625 C-69.80568444 56.62093893 -62.9524393 57.53756711 -56 58 C-58.70052723 61.39841629 -62.36360569 62.56077912 -66.3125 64 C-67.02092041 64.26127686 -67.72934082 64.52255371 -68.45922852 64.79174805 C-82.93421833 69.96542289 -100.9179152 74.03684719 -116 69 C-120.29204291 66.65152369 -123.47050194 64.21583009 -126 60 C-127.17995612 55.63577874 -127.35800301 52.14113459 -126 47.8125 C-120.44301009 39.99798294 -113.88275443 37.07952985 -104.63671875 35.3828125 C-95.3747738 34.40787093 -86.25779907 36.92327773 -77.62109375 40.09765625 C-63.80626145 44.85358212 -48.01768834 42.59199188 -35.04296875 36.64453125 C-28.9372607 33.52903316 -23.84030765 29.84030765 -19 25 C-18.37867188 24.37867188 -17.75734375 23.75734375 -17.1171875 23.1171875 C-11.95675062 17.62247131 -7.80099625 11.52182012 -3.68041992 5.23266602 C-2.50111513 3.45598227 -1.25600928 1.7233124 0 0 Z " fill="#29C9D3" transform="translate(196,124)"/>
<path d="M0 0 C3.4939905 2.92354307 5.28423358 5.42044456 5.75 9.9375 C5.44271236 14.3474929 3.32061696 16.14123697 0.12109375 18.9609375 C-2.40653701 21.39081459 -4.32650181 24.03086368 -6.375 26.875 C-17.59602707 42.03190165 -31.14716555 50.99214037 -50 54 C-53.30915928 54.28874148 -56.61977964 54.466788 -59.9375 54.625 C-61.32908325 54.69255493 -61.32908325 54.69255493 -62.7487793 54.76147461 C-70.24587915 55.07350239 -77.53352703 54.81566511 -85 54 C-85 53.01 -85 52.02 -85 51 C-84.22398438 50.78085938 -83.44796875 50.56171875 -82.6484375 50.3359375 C-76.77954786 48.61308923 -71.23134605 46.71621956 -65.6875 44.125 C-58.26997491 40.81256191 -50.62216048 39.00754117 -42.7019043 37.26806641 C-28.40902233 34.00145792 -20.04495328 28.14857498 -12 16 C-12.969375 16.86625 -13.93875 17.7325 -14.9375 18.625 C-26.06408156 28.06371689 -37.61480277 32.32996433 -51.6875 35.4375 C-61.93031098 37.71528712 -68.86773793 41.39253707 -77 48 C-77.66 48 -78.32 48 -79 48 C-76.77651779 33.87922867 -76.77651779 33.87922867 -73.17578125 30.0703125 C-70.49916044 28.71565276 -67.87640823 27.86462448 -65 27 C-61.86391631 25.88434021 -58.74653987 24.71813911 -55.625 23.5625 C-54.37626099 23.10846802 -54.37626099 23.10846802 -53.10229492 22.64526367 C-43.21740479 19.03760409 -34.7670773 14.71651504 -26.375 8.375 C-18.61549721 2.52260969 -10.12737684 -3.72799108 0 0 Z " fill="#29CCD5" transform="translate(192,106)"/>
<path d="M0 0 C-0.66 1.65 -1.32 3.3 -2 5 C-0.82523602 6.39291285 -0.82523602 6.39291285 2.46875 6.25 C7.49686445 6.1872606 11.80265788 4.67385225 16.5 3 C24.28716519 0.2251193 30.9148452 -1.53193305 39 1.5 C39.763125 1.7784375 40.52625 2.056875 41.3125 2.34375 C41.869375 2.5603125 42.42625 2.776875 43 3 C43 3.66 43 4.32 43 5 C43.73605469 4.9278125 44.47210938 4.855625 45.23046875 4.78125 C48.71851592 5.05675161 49.80608914 6.12103376 52.3125 8.5 C53.00988281 9.1496875 53.70726562 9.799375 54.42578125 10.46875 C54.94527344 10.9740625 55.46476562 11.479375 56 12 C55.67 12.66 55.34 13.32 55 14 C54.32195312 13.95359375 53.64390625 13.9071875 52.9453125 13.859375 C43.25016128 13.48338576 36.95701751 15.91868415 28.97631836 21.34985352 C17.0765518 29.41674863 5.95811285 30.40193079 -8.24755859 30.44726562 C-17.2535995 30.59468813 -24.90602829 32.70948724 -31.9375 38.5625 C-32.64777344 39.14128906 -33.35804687 39.72007812 -34.08984375 40.31640625 C-36.00345833 41.9529635 -36.00345833 41.9529635 -37.62890625 43.71484375 C-39 45 -39 45 -41 45 C-37.69602186 28.20801701 -37.69602186 28.20801701 -31 23 C-22.13738031 18.31786129 -11.11914858 18.85179425 -1.3125 19.125 C11.20497944 19.16236561 20.70491777 14.49809538 31 8 C27.1008574 9.22771837 23.52527692 10.66928007 19.875 12.5 C9.82170777 17.06233744 0.27274566 17.03634677 -10.54638672 16.82373047 C-18.01686923 16.77974472 -24.03466315 18.21610132 -31 21 C-31.99 21.33 -32.98 21.66 -34 22 C-33.6605879 16.56940647 -30.65552108 12.78925966 -27 9 C-19.40073561 3.07469945 -9.75061417 -0.79059034 0 0 Z " fill="#28CDD7" transform="translate(135,89)"/>
<path d="M0 0 C3.57527636 2.96671868 5.78247769 5.08580364 6.3125 9.75 C5.80414624 15.03687909 3.10482299 17.89517701 -0.5625 21.5625 C-11.41584417 30.04337949 -25.55423491 32.95909435 -39 32 C-40.34317935 31.70886753 -41.68315782 31.3934661 -43 31 C-43 30.34 -43 29.68 -43 29 C-42.41508789 28.79842285 -41.83017578 28.5968457 -41.22753906 28.38916016 C-38.56737162 27.47060571 -35.90868088 26.54784791 -33.25 25.625 C-32.32960937 25.30789062 -31.40921875 24.99078125 -30.4609375 24.6640625 C-29.57148438 24.3546875 -28.68203125 24.0453125 -27.765625 23.7265625 C-26.54020996 23.30238037 -26.54020996 23.30238037 -25.29003906 22.86962891 C-23.10693871 22.04060935 -21.06693116 21.08327115 -19 20 C-26.42978492 21.86502764 -33.56878976 24.21630629 -40.73828125 26.9140625 C-46.99555079 28.9973211 -52.85406074 29.13010144 -59.375 29.0625 C-60.20644531 29.05798828 -61.03789062 29.05347656 -61.89453125 29.04882812 C-63.92971897 29.03713164 -65.96486923 29.01919935 -68 29 C-68 28.34 -68 27.68 -68 27 C-66.84886719 26.53851563 -65.69773438 26.07703125 -64.51171875 25.6015625 C-50.49286255 19.89232421 -37.14430192 13.23638162 -24.10327148 5.55249023 C-15.94852318 0.75969952 -9.50349177 -2.33692421 0 0 Z " fill="#28C7D1" transform="translate(221,168)"/>
<path d="M0 0 C0 1.32 0 2.64 0 4 C-4.62 6.64 -9.24 9.28 -14 12 C-12.1025 11.05125 -10.205 10.1025 -8.25 9.125 C-4.83333333 7.41666667 -1.41666667 5.70833333 2 4 C3.56626006 5.56626006 3.2457167 7.07075549 3.3125 9.25 C3.22449799 16.90617484 1.38216736 25.49365102 -3.4375 31.625 C-9.06042413 36.83649065 -13.59370586 38.14123898 -21.125 38.1875 C-22.70667969 38.20876953 -22.70667969 38.20876953 -24.3203125 38.23046875 C-27 38 -27 38 -29 36 C-27.02 35.34 -25.04 34.68 -23 34 C-23.845625 34.04640625 -24.69125 34.0928125 -25.5625 34.140625 C-32.96530419 34.37616877 -37.69641861 33.95518832 -44 30 C-44 29.34 -44 28.68 -44 28 C-32.615 25.525 -32.615 25.525 -21 23 C-42.62162162 28.18918919 -42.62162162 28.18918919 -49 25 C-49.625 22.4375 -49.625 22.4375 -50 20 C-44.28264895 17.54970669 -40.20970773 16.66733709 -34 17 C-34.33 16.01 -34.66 15.02 -35 14 C-34.07960937 13.57589844 -33.15921875 13.15179688 -32.2109375 12.71484375 C-30.93215702 12.12268652 -29.65352242 11.5302142 -28.375 10.9375 C-27.70218994 10.62675537 -27.02937988 10.31601074 -26.33618164 9.99584961 C-22.88501432 8.39019613 -19.468298 6.74569811 -16.09765625 4.9765625 C-15.48164551 4.6556665 -14.86563477 4.33477051 -14.23095703 4.00415039 C-12.52269432 3.10723107 -10.82168175 2.19654322 -9.12109375 1.28515625 C-5.81666836 -0.0754895 -3.5351319 -0.2604834 0 0 Z M-27.25 13.9375 C-28.14203125 14.13214844 -29.0340625 14.32679687 -29.953125 14.52734375 C-30.62859375 14.68332031 -31.3040625 14.83929688 -32 15 C-32 15.33 -32 15.66 -32 16 C-26.80790596 16.21192221 -22.873261 15.5912689 -18 14 C-21.40401948 12.86267574 -23.77456664 13.16010043 -27.25 13.9375 Z M-17 20 C-17.66 20.66 -18.32 21.32 -19 22 C-17.35 21.67 -15.7 21.34 -14 21 C-14.99 20.67 -15.98 20.34 -17 20 Z M-16 30 C-16.66 30.66 -17.32 31.32 -18 32 C-16.68 31.67 -15.36 31.34 -14 31 C-14.66 30.67 -15.32 30.34 -16 30 Z " fill="#28CCD6" transform="translate(170,45)"/>
<path d="M0 0 C0 0.66 0 1.32 0 2 C-1.27875 1.938125 -2.5575 1.87625 -3.875 1.8125 C-17.52930115 1.9183473 -29.9681164 10.11795281 -41.52563477 16.67675781 C-66.2540559 30.69251533 -91.09524328 41.03397446 -120 38 C-120 37.34 -120 36.68 -120 36 C-119.11985229 35.7980603 -119.11985229 35.7980603 -118.22192383 35.59204102 C-103.40354494 32.12660322 -89.74890198 27.51701973 -76 21 C-75.3198584 20.67805664 -74.6397168 20.35611328 -73.93896484 20.02441406 C-67.16668271 16.78154271 -60.53198287 13.2881478 -53.91015625 9.75 C-52.82250977 9.1734668 -51.73486328 8.59693359 -50.61425781 8.00292969 C-48.47660424 6.86803227 -46.34405242 5.72345056 -44.21777344 4.56738281 C-29.03857966 -3.48757941 -16.12857048 -6.98800733 0 0 Z " fill="#27C6D0" transform="translate(218,164)"/>
<path d="M0 0 C1.07636719 -0.01224609 2.15273437 -0.02449219 3.26171875 -0.03710938 C8.59707934 -0.04697749 13.15012778 -0.00525727 18.125 2.1875 C18.8585496 6.61728499 17.87404301 8.97155619 15.37890625 12.5078125 C14.16285945 14.12035272 12.9315702 15.72147985 11.6875 17.3125 C10.73593018 18.5641394 10.73593018 18.5641394 9.76513672 19.84106445 C8.49095331 21.51547007 7.21107495 23.18555861 5.92529297 24.85107422 C3.92897436 27.44190268 1.96651091 30.0560943 0.01391602 32.67993164 C-1.60789407 34.8549804 -3.24261899 37.02037349 -4.875 39.1875 C2.715 39.5175 10.305 39.8475 18.125 40.1875 C18.62 43.6525 18.62 43.6525 19.125 47.1875 C18.125 48.1875 18.125 48.1875 14.79858398 48.30102539 C13.32274444 48.30086629 11.84689931 48.29517314 10.37109375 48.28515625 C9.59564713 48.2837413 8.8202005 48.28232635 8.02125549 48.28086853 C5.53496506 48.27525345 3.0487634 48.26269846 0.5625 48.25 C-1.11913933 48.24498694 -2.80078006 48.2404237 -4.48242188 48.23632812 C-8.61331566 48.22527913 -12.74414276 48.20800445 -16.875 48.1875 C-17.92993164 46.38061523 -17.92993164 46.38061523 -18.875 44.1875 C-16.9289498 37.34605241 -12.27253468 32.13984716 -7.9375 26.625 C-6.51010819 24.79161736 -5.08428182 22.95701467 -3.66015625 21.12109375 C-3.02988525 20.31728271 -2.39961426 19.51347168 -1.75024414 18.68530273 C0.31730607 15.93135062 2.21478325 13.05282513 4.125 10.1875 C-2.475 9.8575 -9.075 9.5275 -15.875 9.1875 C-16.875 3.1875 -16.875 3.1875 -15.875 1.1875 C-10.8664748 -0.59862325 -5.2388459 0.00311465 0 0 Z " fill="#27C5CF" transform="translate(88.875,212.8125)"/>
<path d="M0 0 C3.31697787 1.95355752 5.10770296 3.62700784 6.5 7.3125 C7.12507639 10.31604502 7.62080173 13.2406845 7.5 16.3125 C6.84 17.3025 6.18 18.2925 5.5 19.3125 C3.16162109 19.74487305 3.16162109 19.74487305 0.2734375 19.82421875 C-1.2734375 19.87739258 -1.2734375 19.87739258 -2.8515625 19.93164062 C-3.93179688 19.95419922 -5.01203125 19.97675781 -6.125 20 C-7.75695312 20.05124023 -7.75695312 20.05124023 -9.421875 20.10351562 C-12.11448063 20.18618334 -14.80675291 20.25527087 -17.5 20.3125 C-16.35339866 22.87761649 -16.35339866 22.87761649 -14.5 25.3125 C-12.10804775 26.02698969 -12.10804775 26.02698969 -9.5 25.8125 C-8.63375 25.8021875 -7.7675 25.791875 -6.875 25.78125 C-4.09050065 25.23167776 -3.39201251 24.33242322 -1.5 22.3125 C1.6875 22.125 1.6875 22.125 4.5 22.3125 C5.3125 24.5 5.3125 24.5 5.5 27.3125 C2.46446826 31.56224443 -1.13204432 33.50465876 -6.03125 34.93359375 C-11.10759183 35.71271583 -15.85583277 34.75123805 -20.359375 32.30078125 C-24.19019319 29.44663206 -26.45710475 25.91502945 -27.5 21.3125 C-28.35737243 14.1359752 -27.88872487 9.1245951 -23.5 3.3125 C-16.99452538 -2.71696428 -8.11386945 -3.73328316 0 0 Z M-18.5 10.3125 C-18.17 10.9725 -17.84 11.6325 -17.5 12.3125 C-12.55 12.3125 -7.6 12.3125 -2.5 12.3125 C-2.83 10.6625 -3.16 9.0125 -3.5 7.3125 C-9.71563748 3.16874168 -13.98331914 4.83773532 -18.5 10.3125 Z " fill="#26C3CD" transform="translate(139.5,227.6875)"/>
<path d="M0 0 C3.0625 0.1875 3.0625 0.1875 5.0625 2.1875 C5.33374023 4.49414062 5.33374023 4.49414062 5.37109375 7.34375 C5.40879883 8.87708984 5.40879883 8.87708984 5.44726562 10.44140625 C5.4824209 12.60540883 5.51367121 14.76947838 5.54101562 16.93359375 C5.56744141 17.95582031 5.59386719 18.97804687 5.62109375 20.03125 C5.63454834 20.97162109 5.64800293 21.91199219 5.66186523 22.88085938 C5.86017944 24.02264648 5.86017944 24.02264648 6.0625 25.1875 C8.94849388 27.54368542 8.94849388 27.54368542 12.5625 27 C16.08518503 26.18223383 16.98735143 25.96249349 19.0625 23.1875 C19.53297387 20.90628714 19.53297387 20.90628714 19.50390625 18.37109375 C19.53033203 17.44232422 19.55675781 16.51355469 19.58398438 15.55664062 C19.60428711 14.10547852 19.60428711 14.10547852 19.625 12.625 C19.65936618 10.70685782 19.70193121 8.78883957 19.75390625 6.87109375 C19.76623291 6.02087646 19.77855957 5.17065918 19.79125977 4.29467773 C20.0625 2.1875 20.0625 2.1875 22.0625 0.1875 C25.125 0 25.125 0 28.0625 0.1875 C29.76742881 1.89242881 29.1905442 4.03284261 29.20144653 6.30651855 C29.1994223 7.02005493 29.19739807 7.73359131 29.1953125 8.46875 C29.19626923 9.19743286 29.19722595 9.92611572 29.19821167 10.67687988 C29.19889335 12.2202971 29.19703988 13.76371717 29.19287109 15.30712891 C29.18752262 17.677474 29.19281642 20.04762959 29.19921875 22.41796875 C29.19855797 23.91406292 29.1972768 25.41015697 29.1953125 26.90625 C29.19733673 27.61978638 29.19936096 28.33332275 29.20144653 29.06848145 C29.17745191 34.07254809 29.17745191 34.07254809 28.0625 35.1875 C24.625 35.375 24.625 35.375 21.0625 35.1875 C20.4025 34.5275 19.7425 33.8675 19.0625 33.1875 C18.258125 33.6825 17.45375 34.1775 16.625 34.6875 C12.24533162 36.53157089 8.74988476 36.95894794 4.0625 36.1875 C0.2598971 34.1824912 -1.55540841 32.76063738 -3.9375 29.1875 C-4.18041992 26.29248047 -4.18041992 26.29248047 -4.16796875 22.8046875 C-4.16603516 21.55558594 -4.16410156 20.30648437 -4.16210938 19.01953125 C-4.14986328 17.71371094 -4.13761719 16.40789062 -4.125 15.0625 C-4.12435547 13.74894531 -4.12371094 12.43539062 -4.12304688 11.08203125 C-4.07268563 0.25995866 -4.07268563 0.25995866 0 0 Z " fill="#27C4CD" transform="translate(198.9375,225.8125)"/>
<path d="M0 0 C0.66 0.99 1.32 1.98 2 3 C2.804375 2.505 3.60875 2.01 4.4375 1.5 C10.01215003 -0.84722106 14.68355887 -0.8150441 20.375 1.1875 C23.36936996 3.25504116 24.40821199 4.74881024 26 8 C26.35644531 10.93847656 26.35644531 10.93847656 26.328125 14.140625 C26.32296875 15.29304687 26.3178125 16.44546875 26.3125 17.6328125 C26.291875 18.82648438 26.27125 20.02015625 26.25 21.25 C26.24484375 22.45914063 26.2396875 23.66828125 26.234375 24.9140625 C26.15408872 33.84591128 26.15408872 33.84591128 25 35 C21.5 35.125 21.5 35.125 18 35 C16.31699331 33.31699331 16.77190923 31.17991273 16.68359375 28.87109375 C16.64169922 27.83662109 16.59980469 26.80214844 16.55664062 25.73632812 C16.51732422 24.64771484 16.47800781 23.55910156 16.4375 22.4375 C16.39431641 21.34501953 16.35113281 20.25253906 16.30664062 19.12695312 C16.20017932 16.41810436 16.09816484 13.70916008 16 11 C12.44493789 9.08455705 10.08352528 8.48955934 6 9 C3.64319323 10.29700534 3.64319323 10.29700534 2 13 C1.38288481 16.5550705 1.34864199 20.0853479 1.3125 23.6875 C1.27060861 25.60815674 1.22522986 27.52874171 1.17578125 29.44921875 C1.16458252 30.29830811 1.15338379 31.14739746 1.1418457 32.0222168 C1 34 1 34 0 35 C-3.5 35.125 -3.5 35.125 -7 35 C-8 34 -8 34 -8.11352539 30.85717773 C-8.11336633 29.46597303 -8.10767506 28.07476239 -8.09765625 26.68359375 C-8.0962413 25.95253922 -8.09482635 25.22148468 -8.09336853 24.46827698 C-8.08775408 22.12464368 -8.07519922 19.78110461 -8.0625 17.4375 C-8.05748686 15.85221492 -8.05292363 14.26692834 -8.04882812 12.68164062 C-8.03777997 8.7877239 -8.02050572 4.89387795 -8 1 C-5.21136993 -0.39431504 -3.07921132 -0.25660094 0 0 Z " fill="#27C4CD" transform="translate(161,226)"/>
<path d="M0 0 C-2.22614136 2.48237513 -4.25904742 3.7482782 -7.31640625 5.05078125 C-8.57892212 5.59883423 -8.57892212 5.59883423 -9.86694336 6.15795898 C-10.75647705 6.53895752 -11.64601074 6.91995605 -12.5625 7.3125 C-22.41489961 11.65614362 -30.9089678 16.30785011 -39.375 23 C-49.40666925 30.89889442 -62.83207666 38.6305083 -76 38 C-76 37.34 -76 36.68 -76 36 C-74.3596225 34.95743613 -72.68741547 33.96457598 -71 33 C-65.10198615 28.69071171 -59.70115145 23.85844795 -54.375 18.875 C-43.34149276 8.58971643 -34.22077817 2.93830285 -19 1 C-17.80503906 0.83177734 -17.80503906 0.83177734 -16.5859375 0.66015625 C-11.0502352 -0.05381242 -5.57559987 -0.10476075 0 0 Z " fill="#29CFD8" transform="translate(148,121)"/>
<path d="M0 0 C1.18722656 -0.00515625 2.37445313 -0.0103125 3.59765625 -0.015625 C6.81238113 0.24004903 9.0462086 0.87267404 11.9375 2.25 C11.9375 2.58 11.9375 2.91 11.9375 3.25 C10.82890625 3.37117188 9.7203125 3.49234375 8.578125 3.6171875 C7.11453766 3.78606296 5.65099843 3.95535572 4.1875 4.125 C3.45789063 4.20363281 2.72828125 4.28226563 1.9765625 4.36328125 C-1.73027257 4.80136176 -4.86702172 5.2486215 -8.0625 7.25 C-6.928125 6.92257813 -5.79375 6.59515625 -4.625 6.2578125 C-0.05028621 5.11413405 4.24513987 5.01927958 8.9375 5.125 C10.09958984 5.13853516 10.09958984 5.13853516 11.28515625 5.15234375 C13.16940843 5.17560612 15.05349832 5.2114636 16.9375 5.25 C17.4325 6.24 17.4325 6.24 17.9375 7.25 C16.4834375 7.68699219 16.4834375 7.68699219 15 8.1328125 C7.76573002 10.33533892 0.62564258 12.66956944 -6.4375 15.375 C-21.79701362 21.25 -21.79701362 21.25 -27.0625 21.25 C-25.28093306 14.30188892 -21.61984214 8.32784048 -16.0625 3.8125 C-10.64844486 0.99267961 -6.1074877 -0.02658319 0 0 Z " fill="#28CBD4" transform="translate(148.0625,30.75)"/>
<path d="M0 0 C0.495 1.485 0.495 1.485 1 3 C0.47535156 3.11214844 -0.04929688 3.22429688 -0.58984375 3.33984375 C-6.63545584 4.87890972 -11.71394607 7.36462925 -17.125 10.375 C-27.20735569 15.93407241 -37.52248809 19.58375174 -49 21 C-48.44317808 17.10224654 -47.0489958 15.45305571 -44 13 C-40.74203699 11.61010728 -37.38567136 10.59453254 -34 9.5625 C-26.92508909 7.31593845 -20.06677167 4.95618949 -13.27734375 1.9453125 C-8.73718326 0.06071758 -4.9241474 -0.09469514 0 0 Z " fill="#27CAD5" transform="translate(168,40)"/>
<path d="M0 0 C0.85851562 0.63164062 1.71703125 1.26328125 2.6015625 1.9140625 C3.91253906 2.85378906 3.91253906 2.85378906 5.25 3.8125 C5.90226562 4.38226563 6.55453125 4.95203125 7.2265625 5.5390625 C7.2265625 6.1990625 7.2265625 6.8590625 7.2265625 7.5390625 C-0.98581666 8.11091095 -7.23349493 6.80588481 -14.7734375 3.5390625 C-13.7734375 0.5390625 -13.7734375 0.5390625 -11.5859375 -0.6484375 C-7.22662882 -1.90779334 -4.08454374 -2.15157656 0 0 Z " fill="#27C3CB" transform="translate(214.7734375,151.4609375)"/>
<path d="M0 0 C1.65 0 3.3 0 5 0 C4.2884375 0.61875 4.2884375 0.61875 3.5625 1.25 C1.63715751 3.13326435 1.63715751 3.13326435 1 7 C7.93 7 14.86 7 22 7 C21.67 7.66 21.34 8.32 21 9 C14.07 8.67 7.14 8.34 0 8 C-1 2 -1 2 0 0 Z " fill="#23B5BB" transform="translate(73,214)"/>
<path d="M0 0 C0.66 0.33 1.32 0.66 2 1 C0.35 2.65 -1.3 4.3 -3 6 C-2.67 6.66 -2.34 7.32 -2 8 C-4.64 8.33 -7.28 8.66 -10 9 C-10 8.34 -10 7.68 -10 7 C-8.35443434 5.96564444 -6.6829392 4.97236487 -5 4 C-3.31522656 2.68962066 -1.64351457 1.36176922 0 0 Z " fill="#25B3B9" transform="translate(82,150)"/>
<path d="M0 0 C0.33 0.99 0.66 1.98 1 3 C-1.64 3.33 -4.28 3.66 -7 4 C-7 3.34 -7 2.68 -7 2 C-8.32 1.67 -9.64 1.34 -11 1 C-7.32589215 -0.17571451 -3.83070817 -0.07366746 0 0 Z " fill="#24BAC0" transform="translate(168,40)"/>
<path d="M0 0 C-2.27364177 2.42999536 -3.68273845 3.42805835 -7 4 C-6.67 3.01 -6.34 2.02 -6 1 C-6.99 1.33 -7.98 1.66 -9 2 C-10.39439664 2.06665376 -11.79169875 2.08538199 -13.1875 2.0625 C-15.0746875 2.0315625 -15.0746875 2.0315625 -17 2 C-17 1.67 -17 1.34 -17 1 C-11.29309366 0.00749455 -5.78591511 -0.10477512 0 0 Z " fill="#22BFCA" transform="translate(148,121)"/>
<path d="M0 0 C0.66 0.33 1.32 0.66 2 1 C-0.97 3.97 -3.94 6.94 -7 10 C-7.33 9.34 -7.66 8.68 -8 8 C-3.375 2.25 -3.375 2.25 0 0 Z " fill="#21C0C6" transform="translate(112,95)"/>
<path d="M0 0 C0.66 0.33 1.32 0.66 2 1 C-0.31 3.31 -2.62 5.62 -5 8 C-5.33 7.01 -5.66 6.02 -6 5 C-4.02 3.35 -2.04 1.7 0 0 Z " fill="#25BACA" transform="translate(133,34)"/>
</svg>
